# xmcd CD database file
# Generated: dv feb 7 20:31:35 2003 by KSCD
# 
# Track frame offsets:
#       150
#       8833
#       21330
#       34850
#       44167
#       53220
#       56291
#       65504
#       80275
#       89186
#       104432
#       116205
#       133214
#       147683
#       157968
#
# Disc length: 2154 seconds
#
# Revision: 10
# Processed by: cddbd v1.4PL0 Copyright (c) Steve Scherf et al.
# Submitted via: Kscd 1.3.3
#
DISCID=de08680f
DTITLE=Pascal Comelade - Psicòtic Music'Hall
DYEAR=1900
DGENRE=
TTITLE0=Lumpen-Harmony
TTITLE1=To Be Dammit Ornette To Be
TTITLE2=The Blank Invasion Of Schizofonics Bikinis
TTITLE3=Bob Atchum Was a Mix-Chum
TTITLE4=Sense El Ressò Del Dring
TTITLE5=El Zoot-Horn Rrotllo Enmascarado
TTITLE6=Don't Touch my Blue Öyster Shoes
TTITLE7=Il Luna-Park Galactico (Paso-Triple)
TTITLE8=A Gràcia (Territori Sonor)
TTITLE9=Al Pianista Della Bodega Bohemia
TTITLE10=Gégène
TTITLE11=A Figueres
TTITLE12=Psicòtic Music'Hall
TTITLE13=Benvingut A La Societat De L'Espectacle
TTITLE14=Zas Llast Vals
EXTD=
EXTT0=
EXTT1=
EXTT2=
EXTT3=
EXTT4=
EXTT5=
EXTT6=
EXTT7=
EXTT8=
EXTT9=
EXTT10=
EXTT11=
EXTT12=
EXTT13=
EXTT14=
PLAYORDER=
